<svg xmlns="http://www.w3.org/2000/svg" xmlns:svg="http://www.w3.org/2000/svg" id="svg519" width="56.343" height="22.711" version="1.1" viewBox="0 0 14.907 6.009"><defs id="defs513"><clipPath id="clipPath187" clipPathUnits="userSpaceOnUse"><path id="path185" d="m 54.857,649.478 h 52.994 V 674 H 54.857 Z"/></clipPath></defs><metadata id="metadata516"/><g id="layer1" transform="translate(-1.2889e-7,-290.99113)"><g id="g181" transform="matrix(0.35277777,0,0,-0.35277777,-19.35233,528.76335)"><g id="g183" clip-path="url(#clipPath187)"><path id="path189" fill="#5a87c5" fill-opacity="1" fill-rule="nonzero" stroke="none" d="m 57.221,669.467 h 3.562 v -1.166 h -3.562 z"/><path id="path191" fill="#5a87c5" fill-opacity="1" fill-rule="nonzero" stroke="none" d="m 60.783,667.2 h -3.562 v -1.166 h 3.562 z"/><path id="path193" fill="#5a87c5" fill-opacity="1" fill-rule="nonzero" stroke="none" d="m 60.783,664.933 h -3.562 v -1.166 h 3.562 z"/><path id="path195" fill="#5a87c5" fill-opacity="1" fill-rule="nonzero" stroke="none" d="m 60.783,662.667 h -3.562 v -1.166 h 3.562 z"/><path id="path197" fill="#5a87c5" fill-opacity="1" fill-rule="nonzero" stroke="none" d="m 63.147,660.4 h -8.225 v -1.166 h 8.225 z"/><path id="path199" fill="#5a87c5" fill-opacity="1" fill-rule="nonzero" stroke="none" d="m 63.147,658.133 h -8.225 v -1.166 h 8.225 z"/><path id="path201" fill="#5a87c5" fill-opacity="1" fill-rule="nonzero" stroke="none" d="m 54.857,670.568 h 8.225 v 1.166 h -8.225 z"/><path id="path203" fill="#5a87c5" fill-opacity="1" fill-rule="nonzero" stroke="none" d="m 54.857,672.834 h 8.225 V 674 h -8.225 z"/><path id="path205" fill="#5a87c5" fill-opacity="1" fill-rule="nonzero" stroke="none" d="m 86.947,668.301 -0.421,1.166 h -5.894 v -1.166 z"/><path id="path207" fill="#5a87c5" fill-opacity="1" fill-rule="nonzero" stroke="none" d="m 84.194,666.034 v 0.648 l 0.227,-0.648 h 6.525 l 0.242,0.648 v -0.648 h 3.562 v 1.166 h -6.686 l -0.356,-0.988 -0.357,0.988 h -6.719 v -1.166 z"/><path id="path209" fill="#5a87c5" fill-opacity="1" fill-rule="nonzero" stroke="none" d="m 84.194,664.933 h -3.562 v -1.166 h 3.562 z"/><path id="path211" fill="#5a87c5" fill-opacity="1" fill-rule="nonzero" stroke="none" d="m 90.164,663.768 0.409,1.165 h -5.731 l 0.429,-1.165 z"/><path id="path213" fill="#5a87c5" fill-opacity="1" fill-rule="nonzero" stroke="none" d="m 84.194,662.667 h -3.562 v -1.166 h 3.562 z"/><path id="path215" fill="#5a87c5" fill-opacity="1" fill-rule="nonzero" stroke="none" d="m 84.194,660.4 h -5.861 v -1.166 h 5.861 z"/><path id="path217" fill="#5a87c5" fill-opacity="1" fill-rule="nonzero" stroke="none" d="m 84.194,658.133 h -5.861 v -1.166 h 5.861 z"/><path id="path219" fill="#5a87c5" fill-opacity="1" fill-rule="nonzero" stroke="none" d="m 89.347,661.501 0.421,1.166 h -4.117 l 0.417,-1.166 z"/><path id="path221" fill="#5a87c5" fill-opacity="1" fill-rule="nonzero" stroke="none" d="m 88.558,659.234 0.404,1.166 h -2.501 l 0.429,-1.166 z"/><path id="path223" fill="#5a87c5" fill-opacity="1" fill-rule="nonzero" stroke="none" d="m 87.687,656.97 0.071,-0.002 0.419,1.165 h -0.902 z"/><path id="path225" fill="#5a87c5" fill-opacity="1" fill-rule="nonzero" stroke="none" d="m 78.268,671.733 v -1.165 h 7.869 l -0.389,1.165 z"/><path id="path227" fill="#5a87c5" fill-opacity="1" fill-rule="nonzero" stroke="none" d="m 78.268,674 v -1.166 H 85.36 L 84.939,674 Z"/><path id="path229" fill="#5a87c5" fill-opacity="1" fill-rule="nonzero" stroke="none" d="m 94.75,668.301 v 1.166 h -5.925 l -0.421,-1.166 z"/><path id="path231" fill="#5a87c5" fill-opacity="1" fill-rule="nonzero" stroke="none" d="m 94.75,664.933 h -3.562 v -1.166 h 3.562 z"/><path id="path233" fill="#5a87c5" fill-opacity="1" fill-rule="nonzero" stroke="none" d="m 94.75,662.667 h -3.562 v -1.166 h 3.562 z"/><path id="path235" fill="#5a87c5" fill-opacity="1" fill-rule="nonzero" stroke="none" d="m 97.114,660.4 h -5.926 v -1.166 h 5.926 z"/><path id="path237" fill="#5a87c5" fill-opacity="1" fill-rule="nonzero" stroke="none" d="m 97.114,658.133 h -5.926 v -1.166 h 5.926 z"/><path id="path239" fill="#5a87c5" fill-opacity="1" fill-rule="nonzero" stroke="none" d="m 89.602,671.733 -0.389,-1.165 h 7.836 v 1.165 z"/><path id="path241" fill="#5a87c5" fill-opacity="1" fill-rule="nonzero" stroke="none" d="m 90.444,674 -0.421,-1.166 h 7.026 V 674 Z"/><path id="path243" fill="#5a87c5" fill-opacity="1" fill-rule="nonzero" stroke="none" d="m 70.173,669.467 h -3.562 v -1.166 h 3.562 z"/><path id="path245" fill="#5a87c5" fill-opacity="1" fill-rule="nonzero" stroke="none" d="m 75.71,666.034 c 0,0 0.761,0.599 1.004,1.166 H 66.611 v -1.166 z"/><path id="path247" fill="#5a87c5" fill-opacity="1" fill-rule="nonzero" stroke="none" d="m 66.611,664.933 v -1.165 h 10.103 c -0.243,0.566 -1.004,1.165 -1.004,1.165 z"/><path id="path249" fill="#5a87c5" fill-opacity="1" fill-rule="nonzero" stroke="none" d="m 70.173,662.667 h -3.562 v -1.166 h 3.562 z"/><path id="path251" fill="#5a87c5" fill-opacity="1" fill-rule="nonzero" stroke="none" d="m 77.2,668.301 c 0,0 0.227,0.615 0.227,1.166 h -3.789 v -1.166 z"/><path id="path253" fill="#5a87c5" fill-opacity="1" fill-rule="nonzero" stroke="none" d="m 73.638,662.667 v -1.166 h 3.789 c 0,0.55 -0.227,1.166 -0.227,1.166 z"/><path id="path255" fill="#5a87c5" fill-opacity="1" fill-rule="nonzero" stroke="none" d="m 64.248,671.733 v -1.165 h 13.081 c 0,0 -0.153,0.898 -0.42,1.165 z"/><path id="path257" fill="#5a87c5" fill-opacity="1" fill-rule="nonzero" stroke="none" d="m 76.909,659.234 c 0.267,0.267 0.42,1.166 0.42,1.166 H 64.248 v -1.166 z"/><path id="path259" fill="#5a87c5" fill-opacity="1" fill-rule="nonzero" stroke="none" d="m 64.248,674 v -1.166 h 11.721 c 0,0 -1.198,1.166 -2.784,1.166 z"/><path id="path261" fill="#5a87c5" fill-opacity="1" fill-rule="nonzero" stroke="none" d="m 73.185,656.968 c 1.586,0 2.784,1.165 2.784,1.165 H 64.248 v -1.165 z"/></g></g></g></svg>